<?xml version="1.0" encoding="iso-8859-1"?>
<!-- Generator: Adobe Illustrator 19.0.0, SVG Export Plug-In . SVG Version: 6.00 Build 0)  -->
<svg version="1.1" id="Layer_1" xmlns="http://www.w3.org/2000/svg" xmlns:xlink="http://www.w3.org/1999/xlink" x="0px" y="0px"
	 viewBox="0 0 512.002 512.002" style="enable-background:new 0 0 512.002 512.002;" xml:space="preserve">
<g>
	<path style="fill:#858596;" d="M456.116,223.834c0-110.344-89.771-200.115-200.115-200.115S55.886,113.489,55.886,223.834v8.005
		h400.23V223.834z M72.068,215.829c3.618-84.102,63.926-153.765,143.586-171.646c-5.652,4.316-11.563,9.485-17.47,15.668
		c-15.851,16.59-28.457,37.093-37.469,60.938c-10.362,27.416-15.965,59.359-16.691,95.04L72.068,215.829L72.068,215.829z
		 M247.997,215.829h-87.952c1.338-61.72,18.204-111.455,49.007-144.171c14.699-15.613,29.532-24.11,38.946-28.389v172.56H247.997z
		 M264.007,215.829V43.226c9.214,4.168,23.659,12.427,38.237,27.686c31.257,32.715,48.369,82.708,49.716,144.918h-87.953V215.829z
		 M367.978,215.829c-0.726-35.681-6.327-67.624-16.69-95.04c-9.012-23.845-21.619-44.348-37.469-60.938
		c-5.907-6.182-11.818-11.353-17.47-15.668c79.66,17.881,139.969,87.544,143.586,171.646H367.978z"/>
	<rect x="247.997" y="463.972" style="fill:#858596;" width="16.01" height="48.03"/>
	<rect x="247.997" y="239.845" style="fill:#858596;" width="16.01" height="128.072"/>
	<path style="fill:#858596;" d="M47.881,415.944v40.023h24.014v56.032h16.011v-56.032h336.779v56.032h16.01v-56.032h23.426v-40.023
		H47.881z M448.111,439.958H63.891v-8.005h384.22V439.958z"/>
	<path style="fill:#858596;" d="M171.954,407.94v-2.875c0-16.07-13.074-29.144-29.144-29.144H89.033
		c-16.07,0-29.144,13.073-29.144,29.144v2.875h16.01v-2.875c0-7.242,5.892-13.134,13.133-13.134h53.777
		c7.242,0,13.133,5.893,13.133,13.134v2.875H171.954z"/>
	<path style="fill:#858596;" d="M452.114,407.94v-2.875c0-16.07-13.074-29.144-29.144-29.144h-213.87
		c-16.07,0-29.144,13.073-29.144,29.144v2.875h16.01v-2.875c0-7.242,5.892-13.134,13.133-13.134h213.87
		c7.242,0,13.133,5.893,13.133,13.134v2.875H452.114z"/>
	<rect x="248.007" style="fill:#858596;" width="15.993" height="16.011"/>
</g>
<g>
</g>
<g>
</g>
<g>
</g>
<g>
</g>
<g>
</g>
<g>
</g>
<g>
</g>
<g>
</g>
<g>
</g>
<g>
</g>
<g>
</g>
<g>
</g>
<g>
</g>
<g>
</g>
<g>
</g>
</svg>
